<?xml version="1.0" encoding="UTF-8"?>
<svg xmlns="http://www.w3.org/2000/svg" width="192" height="98" viewBox="0 0 192 98" fill="none">
  <g clip-path="url(#clip0_1001_782)">
    <path d="M37.817 76.4676C37.817 66.106 29.7111 58.2803 18.9553 58.2803C8.1994 58.2803 0 66.106 0 76.4676C0 84.3711 4.81676 91.0922 12.2679 93.5814C14.1073 94.2038 16.1494 94.4994 18.55 94.4994H19.3294C21.6832 94.4994 23.7097 94.2038 25.5179 93.6125C25.7985 93.5192 26.0479 93.4103 26.3285 93.3169L29.7267 97.9999L34.6682 94.4216L31.6129 90.2209C35.5099 86.8915 37.817 81.9751 37.817 76.4832M18.9553 63.8345C26.235 63.8345 31.722 69.2642 31.722 76.4832C31.722 81.6329 28.9161 86.0669 24.38 88.0428C22.9458 88.6651 21.2623 89.0074 19.267 88.9607H18.4564C16.5079 88.9296 14.8088 88.6029 13.3903 87.9805C8.88528 85.9891 6.09499 81.5862 6.09499 76.4832C6.09499 69.2798 11.6288 63.8345 18.9553 63.8345Z" fill="black"></path>
    <path d="M67.1384 78.7704C67.1384 85.4292 63.7713 89.1009 57.6764 89.1009C52.1114 89.1009 49.0405 85.6937 49.0405 79.5016V58.6694H42.9455V79.6572C42.9455 89.0387 48.0584 94.6396 56.6319 94.6396C61.2461 94.6396 64.8313 93.2549 67.2787 90.5012V94.2506H73.171V58.6694H67.1228V78.7704H67.1384Z" fill="black"></path>
    <path d="M96.491 58.2803C86.8731 58.2803 81.1367 64.2857 81.1367 74.3517V94.2504H87.1225V84.76H105.86V94.2504H111.955V74.3517C111.955 64.2857 106.171 58.2803 96.491 58.2803ZM105.86 73.9005V79.3147H87.1225V73.9005C87.1225 67.3973 90.4428 63.8189 96.491 63.8189C102.539 63.8189 105.86 67.3973 105.86 73.9005Z" fill="black"></path>
    <path d="M136.35 63.8189C140.185 63.8189 143.24 65.0325 145.937 67.6462L146.342 68.0352L150.192 64.1923L149.818 63.7878C146.56 60.1939 141.837 58.2803 136.132 58.2803C125.095 58.2803 117.083 65.9971 117.083 76.6076C117.083 88.9918 126.452 94.6394 135.15 94.6394C138.673 94.6394 141.697 93.8926 144.175 92.4301V94.2504H149.678V75.6897H143.786V86.3314C141.572 88.1828 138.657 89.2096 135.555 89.2096C129.6 89.2096 123.178 85.2735 123.178 76.6076C123.178 69.202 128.712 63.8189 136.335 63.8189" fill="black"></path>
    <path d="M173.138 58.2803C162.336 58.2803 154.183 66.106 154.183 76.4676C154.183 86.8293 162.336 94.6549 173.138 94.6549C183.941 94.6549 192 86.8448 192 76.4676C192 66.0904 183.894 58.2803 173.138 58.2803ZM185.905 76.4676C185.905 83.7954 180.543 89.1163 173.138 89.1163C165.734 89.1163 160.278 83.7954 160.278 76.4676C160.278 69.1398 165.687 63.8189 173.138 63.8189C180.589 63.8189 185.905 69.1398 185.905 76.4676Z" fill="black"></path>
    <path d="M117.816 17.3628C118.143 18.1251 118.33 18.9497 118.33 19.821C118.33 23.2126 115.571 25.9664 112.173 25.9664C108.993 25.9664 106.405 23.5393 106.078 20.4433C104.955 21.9991 104.285 23.8972 104.285 25.9664C104.285 31.2094 108.556 35.4723 113.81 35.4723C119.063 35.4723 123.334 31.225 123.334 25.9664C123.334 22.1547 121.058 18.8719 117.816 17.3628Z" fill="black"></path>
    <path d="M126.296 25.904C127.34 36.0479 115.976 43.6713 106.686 39.424C99.5931 36.6235 95.6181 27.6777 98.6266 20.521C101.76 12.742 108.806 9.81705 116.802 10.735C129.943 10.9995 143.349 8.01232 154.012 -0.015625C144.643 10.1282 130.317 14.2355 116.802 14.4222C112.75 14.2978 108.603 14.2355 105.517 17.2849C99.0319 22.5746 100.482 33.0607 107.964 36.6858C115.789 40.8397 125.75 34.6943 126.296 25.904Z" fill="black"></path>
    <path d="M95.7202 35.8645L88.1905 43.377L95.7175 50.8921L103.247 43.3796L95.7202 35.8645Z" fill="black"></path>
    <path d="M74.1999 17.3628C73.8725 18.1251 73.6855 18.9497 73.6855 19.821C73.6855 23.2126 76.4446 25.9664 79.8428 25.9664C83.0228 25.9664 85.6104 23.5393 85.9378 20.4433C87.0601 21.9991 87.7304 23.8972 87.7304 25.9664C87.7304 31.2094 83.4593 35.4723 78.206 35.4723C72.9528 35.4723 68.6816 31.225 68.6816 25.9664C68.6816 22.1547 70.9575 18.8719 74.1999 17.3628Z" fill="black"></path>
    <path d="M65.7043 25.904C64.6599 36.0479 76.0237 43.6713 85.3143 39.424C92.4069 36.6235 96.3975 27.6777 93.3734 20.521C90.2402 12.742 83.1943 9.81705 75.1975 10.735C62.0567 10.9995 48.6508 8.01232 37.9885 -0.015625C47.357 10.1282 61.6825 14.2355 75.1975 14.4222C79.2505 14.2978 83.3969 14.2355 86.4834 17.2849C92.9681 22.5746 91.5184 33.0607 84.036 36.6858C76.2108 40.8397 66.2499 34.6943 65.7043 25.904Z" fill="black"></path>
  </g>
  <defs>
    <clipPath id="clip0_1001_782">
      <rect width="192" height="98" fill="white"></rect>
    </clipPath>
  </defs>
</svg>
